
<svg width="58px" height="59px" viewBox="0 0 58 59" version="1.1" xmlns="http://www.w3.org/2000/svg" xmlns:xlink="http://www.w3.org/1999/xlink">
    <g id="Welcome" stroke="none" stroke-width="1" fill="none" fill-rule="evenodd">
        <g id="Mobile-Portrait-Copy-4" transform="translate(-1330.000000, -52.000000)" stroke="#C0C0C0">
            <ellipse id="Oval" stroke-width="8" cx="1359" cy="81.5" rx="25" ry="25.5"></ellipse>
            <path d="M1340.69101,98.900591 C1336.53886,94.3441401 1334,88.2407224 1334,81.5332249 C1334,67.4316142 1345.2216,56 1359.06415,56 C1372.90671,56 1384.12831,67.4316142 1384.12831,81.5332249 C1384.12831,87.8983546 1381.84202,93.7194982 1378.06038,98.1909065 C1377.51065,92.3070339 1372.71476,87.7037543 1366.88417,87.7037543 L1365.48893,87.7037543 C1363.63419,88.5854485 1361.57057,89.086804 1359.39834,89.086804 C1357.22612,89.086804 1355.17086,88.5854485 1353.30775,87.7037543 L1351.91252,87.7037543 C1345.84946,87.7037543 1340.90525,92.6814265 1340.69101,98.900591 Z M1359.39834,84.9376549 C1365.30513,84.9376549 1370.09238,79.9846082 1370.09238,73.8732575 C1370.09238,67.7619067 1365.30513,62.80886 1359.39834,62.80886 C1353.49156,62.80886 1348.7043,67.7619067 1348.7043,73.8732575 C1348.7043,79.9846082 1353.49156,84.9376549 1359.39834,84.9376549 Z" id="Combined-Shape" fill="#C0C0C0"></path>
        </g>
    </g>
</svg>